<svg
   xmlns:dc="http://purl.org/dc/elements/1.1/"
   xmlns:cc="http://creativecommons.org/ns#"
   xmlns:rdf="http://www.w3.org/1999/02/22-rdf-syntax-ns#"
   xmlns:svg="http://www.w3.org/2000/svg"
   xmlns="http://www.w3.org/2000/svg"
   width="75.449219"
   height="79.526199"
   viewBox="0 0 75.449216 79.526198"
   id="svg2"
   version="1.1">
  <defs
     id="defs4" />
  <metadata
     id="metadata7">
    <rdf:RDF>
      <cc:Work
         rdf:about="">
        <dc:format>image/svg+xml</dc:format>
        <dc:type
           rdf:resource="http://purl.org/dc/dcmitype/StillImage" />
        <dc:title></dc:title>
      </cc:Work>
    </rdf:RDF>
  </metadata>
  <g
     id="layer1"
     transform="translate(-169.03104,-176.11909)">
    <g
       id="text-hair"
       style="font-style:normal;font-weight:normal;font-size:40px;line-height:125%;font-family:sans-serif;letter-spacing:0px;word-spacing:0px;fill:#7087a4;fill-opacity:1;stroke:none;stroke-width:1px;stroke-linecap:butt;stroke-linejoin:miter;stroke-opacity:1">
      <path
         d="m 242.56641,176.11914 c -0.625,0 -1.14584,0.20833 -1.5625,0.625 -0.40365,0.40365 -0.60547,0.91797 -0.60547,1.54297 0,1.25 0.65104,1.875 1.95312,1.875 0.625,0 1.13281,-0.18881 1.52344,-0.56641 0.40365,-0.3776 0.60547,-0.8789 0.60547,-1.5039 0,-1.31511 -0.63802,-1.97266 -1.91406,-1.97266 z m -21.83594,6.09375 c -3.20313,0 -5.18229,0.72266 -5.9375,2.16797 -0.2474,0.66407 -0.41667,1.17188 -0.50781,1.52344 -0.15625,0.61198 -0.23438,1.13281 -0.23438,1.5625 0,1.05468 0.29948,1.58203 0.89844,1.58203 0.48177,0 0.72266,-0.26042 0.72266,-0.78125 0,-0.10417 -0.0261,-0.26042 -0.0781,-0.46875 -0.0521,-0.22136 -0.0781,-0.39063 -0.0781,-0.50781 10e-6,-1.70573 1.45183,-2.5586 4.35547,-2.5586 1.61461,0 2.42841,0.41016 2.44141,1.23047 l -1.64062,3.55469 c -0.59897,1.45833 -0.89844,2.70182 -0.89844,3.73047 0,1.47135 0.35156,2.76041 1.05468,3.86718 0.83334,1.28906 1.94011,1.9336 3.32032,1.9336 2.59114,0 4.99999,-1.52995 7.22656,-4.58985 1.88802,-2.59114 2.83203,-5.0651 2.83203,-7.42187 0,-0.97656 -0.14323,-1.93359 -0.42969,-2.87109 -0.39062,-1.28906 -0.94401,-1.9336 -1.66015,-1.9336 -0.28646,0 -0.54037,0.1237 -0.76172,0.3711 -0.20833,0.24739 -0.3125,0.52083 -0.3125,0.82031 0,0.4427 0.2474,1.15885 0.74219,2.14844 0.49479,0.98958 0.74218,1.77734 0.74218,2.36328 0,1.39322 -0.78776,3.09244 -2.36328,5.09765 -1.65364,2.09636 -3.15104,3.14453 -4.49218,3.14453 -1.01563,0 -1.86199,-0.44921 -2.53907,-1.34765 -0.63802,-0.83334 -0.95703,-1.77084 -0.95703,-2.8125 0,-1.45834 0.80078,-4.1211 2.40234,-7.98828 -0.013,-0.85938 -0.48176,-1.41276 -1.40624,-1.66016 -0.41667,-0.10417 -1.23048,-0.15625 -2.44141,-0.15625 z m -35.87891,0.0195 c -1.13281,0 -1.69922,0.42969 -1.69922,1.28906 0,0.70313 0.20183,1.25652 0.60547,1.66016 0.7943,0.82033 1.19794,1.237 1.21094,1.25 0.40365,0.57292 0.75521,1.73177 1.05469,3.47656 0.26042,1.4974 0.39062,2.7474 0.39062,3.75 0,2.09636 -0.57291,4.08203 -1.71875,5.95703 -3.07292,5.01302 -6.52344,7.51954 -10.35156,7.51954 -0.67709,0 -1.43229,-0.2474 -2.26563,-0.74219 -0.22135,-0.11719 -0.88541,-0.57943 -1.99218,-1.38672 l -0.11719,0 c -0.625,0 -0.9375,0.22135 -0.9375,0.66406 0,0.80729 0.54037,1.48437 1.62109,2.03125 0.89844,0.46875 1.79688,0.70313 2.69532,0.70313 3.91927,0 7.36979,-1.13933 10.35156,-3.41797 3.04687,-2.33073 5.58594,-5.29948 7.61719,-8.90625 2.14844,-3.82813 3.22265,-7.55209 3.22265,-11.17188 0,-1.78385 -0.47526,-2.67578 -1.42578,-2.67578 -0.67709,0 -1.01562,0.33204 -1.01562,0.9961 0,0.24739 0.0325,0.62499 0.0977,1.13281 0.0651,0.49479 0.0977,0.86589 0.0977,1.11328 0,1.31511 -0.23437,2.90364 -0.70313,4.76562 -0.61198,2.35677 -1.34765,3.59375 -2.20703,3.71094 -0.57292,-0.23438 -1.08073,-1.81641 -1.52343,-4.74609 -0.48177,-3.3073 -0.85287,-5.19532 -1.11329,-5.66406 -0.49479,-0.8724 -1.1263,-1.3086 -1.89453,-1.3086 z m 16.99219,0 c -0.8724,0 -1.92058,0.42969 -3.14453,1.28906 -1.28907,0.91146 -1.9336,1.78386 -1.9336,2.61719 0,0.26042 0.14974,0.39063 0.44922,0.39063 0.1823,0 0.57943,-0.25391 1.19141,-0.76172 0.61198,-0.52084 1.1198,-0.78125 1.52344,-0.78125 0.48177,0 0.72265,0.30599 0.72265,0.91797 0,0.98958 -0.64453,2.6888 -1.93359,5.09765 -1.27605,2.40886 -1.91406,4.3099 -1.91406,5.70313 0,0.59896 0.14323,1.11979 0.42969,1.5625 0.33853,0.52083 0.78775,0.78125 1.34765,0.78125 1.14583,0 2.38281,-0.65105 3.71094,-1.95313 0.57291,-0.5599 1.58854,-1.77734 3.04687,-3.65234 1.01563,-1.30208 1.72526,-1.95313 2.12891,-1.95313 0.27343,0 0.41016,0.25391 0.41016,0.76172 0,0.65104 -0.20834,1.59505 -0.625,2.83203 -0.41667,1.23698 -0.625,2.181 -0.625,2.83204 0,0.70312 0.35156,1.05468 1.05468,1.05468 0.83334,0 1.875,-0.4427 3.125,-1.32812 1.32813,-0.9375 1.99219,-1.79688 1.99219,-2.57813 0,-0.3125 -0.19531,-0.46875 -0.58594,-0.46875 -0.28646,0 -0.70963,0.27344 -1.26953,0.82032 -0.54687,0.53385 -0.97656,0.80078 -1.28906,0.80078 -0.35157,0 -0.52734,-0.38412 -0.52734,-1.15235 0,-0.5599 0.18228,-1.38021 0.54687,-2.46093 0.22135,-0.66406 0.47526,-1.34766 0.76172,-2.05079 l 1.52344,-3.16406 c 0.65104,-1.38021 0.97656,-2.46094 0.97656,-3.24219 0,-0.49479 -0.13021,-0.93098 -0.39062,-1.30859 -0.29949,-0.40364 -0.69011,-0.60547 -1.17188,-0.60547 -0.66407,0 -1.26302,0.45574 -1.79688,1.36719 -0.53385,1.01563 -0.91797,1.78385 -1.15234,2.30469 -0.97657,1.90104 -2.18099,3.85416 -3.61328,5.85937 -2.01823,2.85156 -3.54818,4.27735 -4.58984,4.27735 -0.35156,0 -0.52735,-0.3711 -0.52735,-1.11329 0,-1.21094 0.66406,-2.97526 1.99219,-5.29296 1.32812,-2.33073 1.99219,-4.1276 1.99219,-5.39063 0,-0.53385 -0.17579,-1.0026 -0.52735,-1.40625 -0.33854,-0.40364 -0.77474,-0.60547 -1.30859,-0.60547 z m 40.37109,0 c -0.55989,0 -1.61458,0.59896 -3.16406,1.79688 -1.5495,1.18489 -2.35028,2.04426 -2.40234,2.57812 0.026,0.013 0.42318,0.11068 1.1914,0.29297 0.5599,0.14323 0.83985,0.34506 0.83985,0.60547 0,0.58594 -0.47526,2.01172 -1.42578,4.27734 -0.9375,2.2526 -1.40625,3.88021 -1.40625,4.88282 0,1.58854 0.59244,2.38281 1.77734,2.38281 0.72917,0 1.71875,-0.38412 2.96875,-1.15235 1.32812,-0.83333 1.99219,-1.58202 1.99219,-2.24609 0,-0.35156 -0.17579,-0.52734 -0.52735,-0.52734 -0.18229,0 -0.42968,0.0976 -0.74218,0.29297 -0.3125,0.18229 -0.56641,0.27343 -0.76172,0.27343 -0.88542,0 -1.32813,-0.3125 -1.32813,-0.9375 0,-0.84635 0.3125,-2.22004 0.9375,-4.12109 0.53386,-1.60156 1.0612,-2.94271 1.58203,-4.02344 0.35156,-0.58594 0.70964,-1.16536 1.07422,-1.73828 0.46875,-0.78125 0.70313,-1.38021 0.70313,-1.79687 0,-0.5599 -0.4362,-0.83985 -1.3086,-0.83985 z"
         id="path4152"
         style="font-style:normal;font-variant:normal;font-weight:normal;font-stretch:normal;font-size:40px;line-height:125%;font-family:Anaktoria;-inkscape-font-specification:'Anaktoria, Normal';text-align:start;writing-mode:lr-tb;text-anchor:start" />
    </g>
    <g
       id="text-eyes"
       style="font-style:normal;font-variant:normal;font-weight:normal;font-stretch:normal;font-size:40px;line-height:125%;font-family:'Comic Sans MS';-inkscape-font-specification:'Comic Sans MS, Normal';text-align:start;letter-spacing:0px;word-spacing:0px;writing-mode:lr-tb;text-anchor:start;fill:#103565;fill-opacity:1;stroke:none;stroke-width:1px;stroke-linecap:butt;stroke-linejoin:miter;stroke-opacity:1">
      <path
         d="m 195.18359,203.53516 c -1.27604,0 -1.91406,0.65103 -1.91406,1.95312 0,2.05729 -0.0325,4.41406 -0.0977,7.07031 -0.0651,2.64323 -0.0977,4.99349 -0.0977,7.05079 0,1.57551 -0.0716,3.9453 -0.21484,7.10937 -0.14323,3.15104 -0.21485,5.51432 -0.21485,7.08984 0,1.32813 0.63802,1.99219 1.91406,1.99219 1.14584,0 1.78386,-0.65104 1.91407,-1.95312 0.10416,-1.99219 0.15625,-3.50261 0.15625,-4.53125 l 0.29297,-9.70703 c -10e-6,-2.0573 0.0325,-4.40756 0.0977,-7.05079 0.0651,-2.65625 0.0977,-5.01302 0.0977,-7.07031 0,-1.30209 -0.64454,-1.95312 -1.9336,-1.95312 z m 23.39844,2.16796 c -0.625,0 -1.16536,0.22136 -1.62109,0.66407 -0.45573,0.44271 -0.6836,0.97656 -0.6836,1.60156 0,0.625 0.22787,1.15886 0.6836,1.60156 0.45573,0.44271 0.99609,0.66407 1.62109,0.66407 0.625,0 1.15886,-0.22136 1.60156,-0.66407 0.45573,-0.4427 0.6836,-0.97656 0.6836,-1.60156 0,-0.625 -0.22787,-1.15885 -0.6836,-1.60156 -0.4427,-0.44271 -0.97656,-0.66407 -1.60156,-0.66407 z m -0.64453,9.25782 c -0.5599,0 -1.02214,0.18229 -1.38672,0.54687 -0.35157,0.36458 -0.52734,0.83984 -0.52734,1.42578 0,1.22396 -0.0651,2.75391 -0.19532,4.58985 -0.1302,1.82292 -0.19531,3.34635 -0.19531,4.57031 0,0.78125 0.0195,1.95313 0.0586,3.51563 0.0521,1.54948 0.0781,2.71484 0.0781,3.49609 0,0.57292 0.17578,1.04167 0.52735,1.40625 0.36458,0.36459 0.82682,0.54687 1.38671,0.54687 0.57292,0 1.03516,-0.18228 1.38672,-0.54687 0.35156,-0.36458 0.52735,-0.83333 0.52735,-1.40625 0,-0.78125 -0.0261,-1.94661 -0.0781,-3.49609 -0.0391,-1.5625 -0.0586,-2.73438 -0.0586,-3.51563 0,-1.22396 0.0651,-2.74739 0.19531,-4.57031 0.13021,-1.83594 0.19531,-3.36589 0.19531,-4.58985 0,-0.58594 -0.18229,-1.0612 -0.54687,-1.42578 -0.35156,-0.36458 -0.8073,-0.54687 -1.36719,-0.54687 z"
         id="path4166"
         style="font-style:normal;font-variant:normal;font-weight:normal;font-stretch:normal;font-size:40px;line-height:125%;font-family:'Comic Sans MS';-inkscape-font-specification:'Comic Sans MS, Normal';text-align:start;writing-mode:lr-tb;text-anchor:start" />
    </g>
    <g
       transform="translate(5e-6,0)"
       id="text-mouth"
       style="font-style:normal;font-variant:normal;font-weight:normal;font-stretch:normal;font-size:40px;line-height:125%;font-family:Anaktoria;-inkscape-font-specification:'Anaktoria, Normal';text-align:start;letter-spacing:0px;word-spacing:0px;writing-mode:lr-tb;text-anchor:start;fill:#244877;fill-opacity:0.98823529;stroke:none;stroke-width:1px;stroke-linecap:butt;stroke-linejoin:miter;stroke-opacity:1">
      <path
         d="m 208.875,238.82812 c -2.57813,10e-6 -4.76563,1.26954 -6.5625,3.8086 -1.62761,2.29167 -2.44141,4.77864 -2.44141,7.46094 0,1.61458 0.37761,2.91666 1.13282,3.90625 0.83333,1.09374 2.03776,1.64062 3.61328,1.64062 2.4349,0 4.58984,-1.34115 6.46484,-4.02344 1.70573,-2.44792 2.55859,-4.94792 2.55859,-7.5 0,-3.52864 -1.58854,-5.29297 -4.76562,-5.29297 z m -0.21484,2.36329 c 1.53646,0 2.30468,0.96354 2.30468,2.89062 0,1.875 -0.54036,3.75651 -1.62109,5.64453 -1.23698,2.16146 -2.72135,3.24219 -4.45313,3.24219 -1.67968,0 -2.51953,-0.84636 -2.51953,-2.53906 0,-1.73178 0.61198,-3.64584 1.83594,-5.74219 1.36719,-2.33073 2.85157,-3.49609 4.45313,-3.49609 z"
         id="path4158"
         style="font-style:normal;font-variant:normal;font-weight:normal;font-stretch:normal;font-size:40px;line-height:125%;font-family:Anaktoria;-inkscape-font-specification:'Anaktoria, Normal';text-align:start;writing-mode:lr-tb;text-anchor:start" />
    </g>
    <text
       id="text4141"
       y="178.25294"
       x="142.91873"
       style="font-style:normal;font-weight:normal;font-size:40px;line-height:125%;font-family:sans-serif;letter-spacing:0px;word-spacing:0px;fill:#000000;fill-opacity:1;stroke:none;stroke-width:1px;stroke-linecap:butt;stroke-linejoin:miter;stroke-opacity:1"
       xml:space="preserve"><tspan
         y="178.25294"
         x="142.91873"
         id="tspan4143" /></text>
  </g>
</svg>
