<?xml version="1.0" encoding="utf-8"?><svg viewBox="0 0 1792 1792" xmlns="http://www.w3.org/2000/svg" xmlns:xlink="http://www.w3.org/1999/xlink"><style>:root>svg{display:none}:root>svg:target{display:block}</style><svg viewBox="0 0 1792 1792" id="arrow-black"><path d="M1600 960q0 54-37 91l-651 651q-39 37-91 37-51 0-90-37l-75-75q-38-38-38-91t38-91l293-293H245q-52 0-84.5-37.5T128 1024V896q0-53 32.5-90.5T245 768h704L656 474q-38-36-38-90t38-90l75-75q38-38 90-38 53 0 91 38l651 651q37 35 37 90z"/></svg><svg viewBox="0 0 75.449216 79.526198" id="yuvilio-path"><g transform="translate(-169.03 -176.12)" font-weight="400" font-size="40" letter-spacing="0" word-spacing="0"><path d="M242.566 176.12c-.625 0-1.145.207-1.562.624-.404.404-.606.918-.606 1.543 0 1.25.65 1.875 1.954 1.875.625 0 1.132-.19 1.523-.566.404-.378.605-.88.605-1.504 0-1.315-.638-1.973-1.914-1.973zm-21.836 6.093c-3.203 0-5.182.723-5.937 2.168a16.95 16.95 0 0 0-.508 1.524c-.156.612-.234 1.133-.234 1.563 0 1.054.3 1.582.9 1.582.48 0 .722-.262.722-.782 0-.105-.026-.26-.078-.47a2.41 2.41 0 0 1-.078-.507c0-1.705 1.452-2.558 4.355-2.558 1.616 0 2.43.41 2.443 1.23l-1.64 3.556c-.6 1.458-.9 2.7-.9 3.73 0 1.47.352 2.76 1.055 3.867.834 1.29 1.94 1.934 3.32 1.934 2.592 0 5-1.53 7.227-4.59 1.888-2.592 2.832-5.066 2.832-7.423 0-.976-.143-1.933-.43-2.87-.39-1.29-.944-1.935-1.66-1.935-.286 0-.54.124-.76.372-.21.247-.314.52-.314.82 0 .443.247 1.16.742 2.148.495.99.742 1.778.742 2.364 0 1.393-.787 3.092-2.363 5.097-1.654 2.097-3.15 3.145-4.492 3.145-1.016 0-1.862-.45-2.54-1.348a4.51 4.51 0 0 1-.956-2.812c0-1.46.8-4.122 2.402-7.99-.013-.858-.482-1.41-1.406-1.66-.417-.103-1.23-.155-2.44-.155zm-35.878.02c-1.133 0-1.7.43-1.7 1.288 0 .705.202 1.258.606 1.662l1.21 1.25c.404.573.756 1.73 1.055 3.476.26 1.498.39 2.748.39 3.75 0 2.097-.572 4.082-1.718 5.957-3.073 5.013-6.523 7.52-10.35 7.52-.678 0-1.434-.248-2.267-.742-.22-.118-.885-.58-1.992-1.387h-.117c-.626 0-.94.22-.94.664 0 .807.542 1.484 1.622 2.03.9.47 1.797.704 2.696.704 3.92 0 7.37-1.14 10.35-3.418 3.048-2.33 5.587-5.3 7.618-8.906 2.15-3.828 3.223-7.552 3.223-11.172 0-1.784-.476-2.676-1.427-2.676-.677 0-1.015.332-1.015.996 0 .248.032.625.097 1.133.065.496.098.867.098 1.115 0 1.315-.234 2.903-.703 4.765-.612 2.357-1.348 3.594-2.207 3.71-.573-.233-1.08-1.815-1.524-4.745-.482-3.307-.853-5.195-1.114-5.664-.495-.87-1.126-1.308-1.894-1.308zm16.992 0c-.873 0-1.92.43-3.145 1.288-1.29.913-1.934 1.785-1.934 2.62 0 .26.15.39.45.39.18 0 .578-.255 1.19-.762.612-.52 1.12-.782 1.524-.782.48 0 .722.306.722.918 0 .99-.644 2.69-1.933 5.098-1.277 2.41-1.915 4.31-1.915 5.703 0 .6.143 1.12.43 1.563.338.52.787.78 1.347.78 1.146 0 2.383-.65 3.71-1.952.574-.56 1.59-1.778 3.048-3.653 1.015-1.302 1.725-1.953 2.13-1.953.272 0 .41.254.41.762 0 .65-.21 1.595-.626 2.832-.417 1.237-.625 2.18-.625 2.832 0 .703.35 1.055 1.054 1.055.833 0 1.875-.442 3.125-1.327 1.327-.938 1.99-1.797 1.99-2.58 0-.31-.195-.467-.585-.467-.287 0-.71.273-1.27.82-.547.534-.976.8-1.29.8-.35 0-.526-.383-.526-1.152 0-.56.18-1.38.546-2.46.22-.665.475-1.348.76-2.05l1.525-3.165c.652-1.382.977-2.462.977-3.244 0-.494-.13-.93-.39-1.308-.3-.404-.69-.606-1.172-.606-.664 0-1.263.456-1.797 1.368a46.177 46.177 0 0 0-1.152 2.304c-.977 1.9-2.18 3.854-3.614 5.86-2.018 2.85-3.548 4.277-4.59 4.277-.35 0-.527-.37-.527-1.112 0-1.21.664-2.976 1.992-5.293 1.33-2.33 1.993-4.128 1.993-5.39 0-.535-.176-1.003-.528-1.407a1.63 1.63 0 0 0-1.308-.606zm40.37 0c-.56 0-1.614.598-3.163 1.796-1.55 1.184-2.35 2.044-2.402 2.577.026.013.424.11 1.192.293.56.144.84.345.84.606 0 .586-.476 2.012-1.426 4.277-.938 2.253-1.406 3.88-1.406 4.883 0 1.59.592 2.383 1.777 2.383.73 0 1.72-.385 2.97-1.154 1.327-.833 1.99-1.582 1.99-2.246 0-.35-.175-.527-.526-.527-.184 0-.43.098-.744.293-.312.182-.566.273-.76.273-.887 0-1.33-.313-1.33-.938 0-.846.313-2.22.938-4.12.534-1.603 1.06-2.944 1.582-4.025.352-.586.71-1.165 1.074-1.738.47-.782.703-1.38.703-1.798 0-.56-.436-.84-1.308-.84z" style="line-height:125%;-inkscape-font-specification:'Anaktoria, Normal';text-align:start" font-family="Anaktoria" fill="#7087a4"/><path d="M195.184 203.535c-1.276 0-1.914.65-1.914 1.953 0 2.058-.033 4.414-.098 7.07a289.78 289.78 0 0 0-.098 7.05c0 1.577-.07 3.947-.215 7.11-.144 3.152-.216 5.515-.216 7.09 0 1.33.638 1.993 1.914 1.993 1.146 0 1.784-.65 1.915-1.952.104-1.993.156-3.503.156-4.532l.292-9.707c0-2.058.032-4.408.097-7.05.065-2.658.097-5.014.097-7.072 0-1.302-.644-1.953-1.933-1.953zm23.398 2.168c-.625 0-1.165.22-1.62.664a2.152 2.152 0 0 0-.685 1.602c0 .624.228 1.158.684 1.6.457.443.997.664 1.622.664.625 0 1.16-.22 1.602-.664.455-.442.683-.976.683-1.6 0-.626-.228-1.16-.683-1.603a2.183 2.183 0 0 0-1.602-.664zm-.644 9.258c-.56 0-1.023.183-1.387.548-.35.364-.527.84-.527 1.426 0 1.224-.065 2.754-.195 4.59-.13 1.822-.195 3.346-.195 4.57 0 .78.02 1.953.058 3.515.054 1.55.08 2.714.08 3.495 0 .573.175 1.042.527 1.407.364.364.827.547 1.387.547.572 0 1.035-.184 1.386-.548.352-.365.528-.834.528-1.407 0-.78-.026-1.946-.078-3.496a153.66 153.66 0 0 1-.06-3.516c0-1.224.066-2.748.196-4.57.13-1.836.196-3.366.196-4.59 0-.586-.183-1.062-.547-1.426-.352-.365-.808-.547-1.368-.547z" style="line-height:125%;-inkscape-font-specification:'Comic Sans MS, Normal';text-align:start" font-family="Comic Sans MS" fill="#103565"/><path d="M208.875 238.828c-2.578 0-4.766 1.27-6.562 3.81-1.628 2.29-2.442 4.777-2.442 7.46 0 1.614.38 2.916 1.134 3.906.833 1.094 2.038 1.64 3.613 1.64 2.435 0 4.59-1.34 6.465-4.023 1.706-2.447 2.56-4.947 2.56-7.5 0-3.528-1.59-5.292-4.767-5.292zm-.215 2.363c1.537 0 2.305.965 2.305 2.892 0 1.875-.54 3.757-1.62 5.645-1.238 2.16-2.723 3.242-4.454 3.242-1.68 0-2.52-.848-2.52-2.54 0-1.732.613-3.646 1.837-5.742 1.367-2.33 2.852-3.497 4.453-3.497z" style="line-height:125%;-inkscape-font-specification:'Anaktoria, Normal';text-align:start" font-family="Anaktoria" fill="#244877" fill-opacity=".988"/><text y="178.253" x="142.919" style="line-height:125%" font-family="sans-serif"/></g></svg></svg>